<svg width="13" height="50" viewBox="0 0 13 50" fill="none" xmlns="http://www.w3.org/2000/svg">
<path d="M5.79708 0.15968C5.22843 0.452428 0.110572 3.06054 0.61604 5.26946C0.679223 5.53559 0.80559 6.12109 1.75334 6.70658C2.89064 7.37192 4.53341 7.69128 5.7339 7.82435L5.60753 38.6161C5.60753 38.829 5.98663 38.9887 6.4921 38.9887C6.99757 38.9887 7.37667 38.829 7.37667 38.6161L7.50304 7.79774C8.70352 7.63806 10.2199 7.34531 11.294 6.70658C12.2418 6.12109 12.3682 5.56221 12.4313 5.26946C12.4313 5.16301 12.4945 5.05655 12.4945 4.9501C12.4945 2.79441 7.81896 0.425813 7.2503 0.133065C7.06075 0.0532251 6.80802 -1.80304e-06 6.55529 -1.80304e-06C6.23937 0.0266116 5.98663 0.0798401 5.79708 0.15968ZM3.20656 6.28077C2.51154 5.85496 2.44836 5.42914 2.38518 5.21623C2.06926 3.91218 4.2175 2.36859 5.7339 1.43712V7.05256C4.91252 6.91949 3.90158 6.70659 3.20656 6.28077ZM10.6622 5.21623C10.599 5.45576 10.5358 5.88157 9.84083 6.28077C9.20899 6.65336 8.32442 6.89288 7.50304 7.02595V1.57019C9.01944 2.50166 10.9149 3.99202 10.6622 5.21623Z" fill="white"/>
<path d="M0.300125 42.5017C-0.0157927 42.6347 -0.0157927 42.8743 0.300125 43.0339C0.616042 43.167 1.18469 43.167 1.56379 43.0339L6.68166 40.8782L11.4836 42.9009C11.7995 43.0339 12.3682 43.0339 12.7473 42.9009C12.9368 42.821 13 42.7412 13 42.6347C13 42.5283 12.9368 42.4484 12.7473 42.3686L7.31349 40.0798C6.99757 39.9468 6.42892 39.9468 6.04982 40.0798L0.300125 42.5017Z" fill="white"/>
<path d="M6.61847 42.2621C6.36574 42.2621 6.17618 42.2888 5.98663 42.3686L0.236938 44.7904C-0.0789793 44.9235 -0.0789793 45.163 0.236938 45.3227C0.552855 45.4824 1.12151 45.4558 1.50061 45.3227L6.61847 43.167L11.4204 45.1896C11.7363 45.3227 12.305 45.3227 12.6841 45.1896C12.8736 45.1098 12.9368 45.0299 12.9368 44.9235C12.9368 44.817 12.8736 44.7372 12.6841 44.6574L7.2503 42.3686C7.12394 42.3154 6.8712 42.2621 6.61847 42.2621Z" fill="white"/>
<path d="M5.98663 44.6574L0.236938 47.0792C-0.0789793 47.2122 -0.0789793 47.4518 0.236938 47.6114C0.552855 47.7445 1.12151 47.7445 1.50061 47.6114L6.61847 45.4558L11.4204 47.4784C11.7363 47.6114 12.305 47.6114 12.6841 47.4784C12.8736 47.3985 12.9368 47.3187 12.9368 47.2122C12.9368 47.1058 12.8736 47.0259 12.6841 46.9461L7.2503 44.6574C6.93439 44.5243 6.36574 44.5243 5.98663 44.6574Z" fill="white"/>
<path d="M5.98663 46.9461L0.236938 49.3679C-0.0789793 49.501 -0.0789793 49.7405 0.236938 49.9002C0.552855 50.0333 1.12151 50.0333 1.50061 49.9002L6.61847 47.7445L11.4204 49.7671C11.7363 49.9002 12.305 49.9002 12.6841 49.7671C12.8736 49.6873 12.9368 49.6075 12.9368 49.501C12.9368 49.3945 12.8736 49.3147 12.6841 49.2349L7.2503 46.9461C6.93439 46.813 6.36574 46.813 5.98663 46.9461Z" fill="white"/>
</svg>
